<?xml version="1.0" encoding="UTF-8" standalone="no"?>
<!-- Created with Inkscape (http://www.inkscape.org/) -->

<svg
   xmlns:dc="http://purl.org/dc/elements/1.1/"
   xmlns:cc="http://creativecommons.org/ns#"
   xmlns:rdf="http://www.w3.org/1999/02/22-rdf-syntax-ns#"
   xmlns:svg="http://www.w3.org/2000/svg"
   xmlns="http://www.w3.org/2000/svg"
   xmlns:sodipodi="http://sodipodi.sourceforge.net/DTD/sodipodi-0.dtd"
   xmlns:inkscape="http://www.inkscape.org/namespaces/inkscape"
   width="210mm"
   height="297mm"
   id="svg3506"
   version="1.1"
   inkscape:version="0.47 r22583"
   sodipodi:docname="Powered-by-CentOS.svg"
   inkscape:export-filename="/home/william/Documentos/artes graficas/fedora/funcionaconfedora.png"
   inkscape:export-xdpi="57.049999"
   inkscape:export-ydpi="57.049999">
  <defs
     id="defs3508">
    <inkscape:perspective
       sodipodi:type="inkscape:persp3d"
       inkscape:vp_x="0 : 526.18109 : 1"
       inkscape:vp_y="0 : 1000 : 0"
       inkscape:vp_z="744.09448 : 526.18109 : 1"
       inkscape:persp3d-origin="372.04724 : 350.78739 : 1"
       id="perspective28" />
    <inkscape:perspective
       id="perspective25"
       inkscape:persp3d-origin="32 : 21.333333 : 1"
       inkscape:vp_z="64 : 32 : 1"
       inkscape:vp_y="0 : 1000 : 0"
       inkscape:vp_x="0 : 32 : 1"
       sodipodi:type="inkscape:persp3d" />
  </defs>
  <sodipodi:namedview
     id="base"
     pagecolor="#ffffff"
     bordercolor="#666666"
     borderopacity="1.0"
     inkscape:pageopacity="0.0"
     inkscape:pageshadow="2"
     inkscape:zoom="0.26"
     inkscape:cx="-11.428571"
     inkscape:cy="467.31383"
     inkscape:document-units="px"
     inkscape:current-layer="layer1"
     showgrid="false"
     inkscape:window-width="1366"
     inkscape:window-height="693"
     inkscape:window-x="0"
     inkscape:window-y="25"
     inkscape:window-maximized="1" />
  <metadata
     id="metadata3511">
    <rdf:RDF>
      <cc:Work
         rdf:about="">
        <dc:format>image/svg+xml</dc:format>
        <dc:type
           rdf:resource="http://purl.org/dc/dcmitype/StillImage" />
        <dc:title />
      </cc:Work>
    </rdf:RDF>
  </metadata>
  <g
     inkscape:label="Capa 1"
     inkscape:groupmode="layer"
     id="layer1">
    <g
       id="g4217">
      <rect
         style="fill:#ffffff;fill-opacity:1;stroke:#262577;stroke-width:13.68127918000000065;stroke-linecap:round;stroke-linejoin:bevel;stroke-miterlimit:4;stroke-opacity:1;stroke-dasharray:none;stroke-dashoffset:0"
         id="rect3261"
         width="687.9729"
         height="1037.8228"
         x="33.017258"
         y="6.6859808"
         ry="47.026123" />
      <path
         inkscape:connector-curvature="0"
         style="fill:#262577;fill-opacity:1;stroke-width:7;stroke-linecap:round;stroke-linejoin:bevel;stroke-miterlimit:4;stroke-opacity:1;stroke-dashoffset:0"
         d="M 363.38351,746.94099 C 247.91963,747.05064 136.83166,759.13131 33.017258,782.7322 l 0,214.74723 c 0,26.05247 20.976927,47.02947 47.029398,47.02937 l 593.914114,0 c 26.05248,0 47.0294,-20.9769 47.0294,-47.02937 l 0,-214.564 C 599.41259,758.75329 479.20576,746.83102 363.38351,746.94099 z"
         id="path3275" />
      <g
         id="flowRoot3073"
         style="font-size:40px;font-style:normal;font-variant:normal;font-weight:normal;font-stretch:normal;line-height:125%;letter-spacing:0px;word-spacing:0px;fill:#262577;fill-opacity:1;stroke:none;font-family:Monospace;-inkscape-font-specification:Monospace"
         transform="translate(-14.285714,46.857143)">
        <path
           id="path4199"
           style="font-size:65px;font-weight:bold;fill:#262577;font-family:Cantarell;-inkscape-font-specification:Cantarell Bold"
           d="m 68.82375,628.28563 0,45.11 7.995,0 0,-17.55 c 1.169999,0.065 2.275001,0.13 3.51,0.13 9.74999,0 21.645,-1.30001 21.645,-15.015 0,-12.41499 -11.960006,-12.675 -17.81,-12.675 l -15.34,0 m 7.995,7.345 5.85,0 c 5.849994,0 11.115,0.71501 11.115,6.24 0,6.23999 -6.175007,6.825 -13,6.825 -1.364999,0 -2.665001,-0.13 -3.965,-0.195 l 0,-12.87" />
        <path
           id="path4201"
           style="font-size:65px;font-weight:bold;fill:#262577;font-family:Cantarell;-inkscape-font-specification:Cantarell Bold"
           d="m 124.56328,641.41563 c -10.07499,0 -16.965,6.43501 -16.965,16.64 0,10.00999 6.95501,15.99 16.445,15.99 9.94499,0 17.03,-6.43501 17.03,-16.9 0,-10.13999 -7.28001,-15.73 -16.51,-15.73 m -0.455,7.085 c 4.355,0 9.295,3.12001 9.295,9.555 0,5.46 -3.965,8.905 -8.775,8.905 -5.58999,0 -9.295,-4.355 -9.295,-9.75 0,-5.91499 4.55001,-8.71 8.775,-8.71" />
        <path
           id="path4203"
           style="font-size:65px;font-weight:bold;fill:#262577;font-family:Cantarell;-inkscape-font-specification:Cantarell Bold"
           d="m 145.5207,642.06563 12.09,31.33 7.085,0 8.255,-22.555 7.345,22.555 7.15,0 13.26,-31.33 -8.385,0 -8.385,23.27 -7.475,-23.27 -7.02,0 -8.06,23.205 -7.475,-23.205 -8.385,0" />
        <path
           id="path4205"
           style="font-size:65px;font-weight:bold;fill:#262577;font-family:Cantarell;-inkscape-font-specification:Cantarell Bold"
           d="m 232.61766,665.92063 c 0,0 -5.26501,1.105 -9.36,1.105 -7.41,0 -10.075,-2.795 -10.79,-5.59 l 22.49,0 0,-4.03 c 0,-6.62999 -3.96501,-15.99 -14.235,-15.99 -9.42499,0 -16.64,5.20001 -16.64,17.225 0,7.27999 3.57501,15.34 17.16,15.34 4.15999,0 6.955,-0.26 10.335,-1.105 l 1.04,-0.26 0,-6.695 m -12.48,-17.745 c 3.76999,0 7.02,2.40501 7.02,7.8 l -14.625,0 c 0,-3.9 2.275,-7.8 7.605,-7.8" />
        <path
           id="path4207"
           style="font-size:65px;font-weight:bold;fill:#262577;font-family:Cantarell;-inkscape-font-specification:Cantarell Bold"
           d="m 247.92516,643.69063 -0.91,-1.625 -5.2,0 0,31.33 7.8,0 0,-23.4 c 2.20999,-0.975 4.745,-1.495 7.215,-1.495 1.75499,0 3.25,0.26 4.745,0.845 l 1.235,0.455 2.47,-6.5 -1.105,-0.52 c -2.08,-0.975 -4.29001,-1.365 -6.5,-1.365 -3.64,0 -7.02001,0.91 -9.75,2.275" />
        <path
           id="path4209"
           style="font-size:65px;font-weight:bold;fill:#262577;font-family:Cantarell;-inkscape-font-specification:Cantarell Bold"
           d="m 297.10984,665.92063 c 0,0 -5.265,1.105 -9.36,1.105 -7.40999,0 -10.075,-2.795 -10.79,-5.59 l 22.49,0 0,-4.03 c 0,-6.62999 -3.96501,-15.99 -14.235,-15.99 -9.42499,0 -16.64,5.20001 -16.64,17.225 0,7.27999 3.57502,15.34 17.16,15.34 4.16,0 6.95501,-0.26 10.335,-1.105 l 1.04,-0.26 0,-6.695 m -12.48,-17.745 c 3.77,0 7.02,2.40501 7.02,7.8 l -14.625,0 c 0,-3.9 2.27501,-7.8 7.605,-7.8" />
        <path
           id="path4211"
           style="font-size:65px;font-weight:bold;fill:#262577;font-family:Cantarell;-inkscape-font-specification:Cantarell Bold"
           d="m 305.13734,658.25063 c 0,11.89499 8.51501,15.795 15.665,15.795 2.73,0 5.98001,-0.585 9.035,-2.08 l 0.65,1.43 5.72,0 0,-45.045 -7.8,0 0,14.105 c -1.94999,-0.65 -4.16,-1.04 -6.695,-1.04 -9.42499,0 -16.575,5.85001 -16.575,16.835 m 17.485,8.905 c -3.89999,0 -9.75,-1.69001 -9.75,-9.685 0,-7.92999 5.85001,-9.36 9.685,-9.36 2.21,0 4.35501,0.455 5.85,0.91 l 0,17.03 c -1.49499,0.585 -3.575,1.105 -5.785,1.105" />
        <path
           id="path4213"
           style="font-size:65px;font-weight:bold;fill:#262577;font-family:Cantarell;-inkscape-font-specification:Cantarell Bold"
           d="m 362.80758,628.28563 0,45.11 5.785,0 0.39,-1.04 c 2.145,0.91 5.005,1.69 8.19,1.69 9.68499,0 16.51,-6.24001 16.51,-16.705 0,-12.28499 -8.77501,-15.925 -15.6,-15.925 -2.795,0 -5.33,0.52 -7.475,1.365 l 0,-14.495 -7.8,0 m 13.39,20.02 c 3.89999,0 9.815,1.56001 9.815,9.88 0,7.53999 -5.78501,9.165 -9.685,9.165 -2.21,0 -4.29,-0.455 -5.72,-0.91 l 0,-17.095 c 2.015,-0.78 3.9,-1.04 5.59,-1.04" />
        <path
           id="path4215"
           style="font-size:65px;font-weight:bold;fill:#262577;font-family:Cantarell;-inkscape-font-specification:Cantarell Bold"
           d="m 398.08938,642.06563 14.16999,31.59 -7.15,16.575 8.71,0 19.175,-48.165 -8.255,0 -8.385,24.05 -9.295,-24.05 -8.96999,0" />
      </g>
      <g
         transform="matrix(10.622859,0,0,10.622859,37.072173,-0.42648944)"
         inkscape:label="Layer 1"
         id="layer1-9">
        <g
           id="g2298"
           transform="translate(-165.57634,-698.65973)">
          <rect
             transform="matrix(-0.7071233,-0.7070903,0.7071233,-0.7070903,0,0)"
             y="-375.16251"
             x="-654.55585"
             height="18.998014"
             width="19.000521"
             id="rect2070"
             style="fill:#efa724;fill-opacity:1;stroke:none"
             inkscape:export-filename="/home/angenenr/Desktop/downloads/path2408.png"
             inkscape:export-xdpi="2522.53"
             inkscape:export-ydpi="2522.53" />
          <rect
             transform="matrix(-0.7071253,-0.7070883,0.7071253,-0.7070883,0,0)"
             y="-397.79163"
             x="-654.55774"
             height="18.998116"
             width="19.000624"
             id="rect2068"
             style="fill:#932279;fill-opacity:1;stroke:none"
             inkscape:export-filename="/home/angenenr/Desktop/downloads/path2408.png"
             inkscape:export-xdpi="2522.53"
             inkscape:export-ydpi="2522.53" />
          <rect
             y="709.15631"
             x="176.12981"
             height="18.947376"
             width="18.949768"
             id="rect1274"
             style="fill:#9ccd2a;fill-opacity:1;stroke:none"
             inkscape:export-filename="/home/angenenr/Desktop/downloads/path2408.png"
             inkscape:export-xdpi="2522.53"
             inkscape:export-ydpi="2522.53" />
          <rect
             transform="matrix(-0.7071298,-0.7070838,0.7071298,-0.7070838,0,0)"
             y="-397.82132"
             x="-677.16235"
             height="18.94832"
             width="18.950821"
             id="rect2064"
             style="fill:#9ccd2a;fill-opacity:1;stroke:none"
             inkscape:export-filename="/home/angenenr/Desktop/downloads/path2408.png"
             inkscape:export-xdpi="2522.53"
             inkscape:export-ydpi="2522.53" />
          <rect
             y="733.10638"
             x="176.12979"
             height="18.997324"
             width="18.999775"
             id="rect2039"
             style="fill:#262577;fill-opacity:1;stroke:none"
             inkscape:export-filename="/home/angenenr/Desktop/downloads/path2408.png"
             inkscape:export-xdpi="2522.53"
             inkscape:export-ydpi="2522.53" />
          <rect
             transform="matrix(-0.7071253,-0.7070883,0.7071253,-0.7070883,0,0)"
             y="-375.16501"
             x="-677.18439"
             height="18.998064"
             width="19.000608"
             id="rect2066"
             style="fill:#262577;fill-opacity:1;stroke:none"
             inkscape:export-filename="/home/angenenr/Desktop/downloads/path2408.png"
             inkscape:export-xdpi="2522.53"
             inkscape:export-ydpi="2522.53" />
          <rect
             y="709.10638"
             x="200.12953"
             height="18.99736"
             width="18.999783"
             id="rect2041"
             style="fill:#932279;fill-opacity:1;stroke:none"
             inkscape:export-filename="/home/angenenr/Desktop/downloads/path2408.png"
             inkscape:export-xdpi="2522.53"
             inkscape:export-ydpi="2522.53" />
          <rect
             transform="matrix(-0.7071253,-0.7070883,0.7071253,-0.7070883,0,0)"
             y="-375.16501"
             x="-677.18439"
             height="18.998072"
             width="19.000616"
             id="rect2082"
             style="fill:#262577;fill-opacity:1;stroke:#b091bc;stroke-width:0;stroke-linejoin:miter;stroke-miterlimit:4;stroke-opacity:0;stroke-dasharray:none"
             inkscape:export-filename="/home/angenenr/Desktop/downloads/path2408.png"
             inkscape:export-xdpi="2522.53"
             inkscape:export-ydpi="2522.53" />
          <rect
             y="733.10632"
             x="200.12953"
             height="18.997362"
             width="18.999775"
             id="rect2086"
             style="fill:#efa724;fill-opacity:1;stroke:none"
             inkscape:export-filename="/home/angenenr/Desktop/downloads/path2408.png"
             inkscape:export-xdpi="2522.53"
             inkscape:export-ydpi="2522.53" />
          <path
             id="rect2140"
             d="m 197.57593,728.80659 0.35356,-0.35354 13.43543,-13.43463 0.35356,-0.35354 -0.35356,-0.35355 -13.43543,-13.43463 -0.35356,-0.35354 -0.35357,0.35354 -13.43543,13.43463 -0.35356,0.35355 0.35356,0.35354 13.43543,13.43463 0.35357,0.35354 z m 0,-1.41417 -12.7283,-12.72754 12.7283,-12.72755 12.7283,12.72755 -12.7283,12.72754 z"
             style="fill:#ffffff;fill-opacity:1;stroke:none"
             inkscape:export-filename="/home/angenenr/Desktop/downloads/path2408.png"
             inkscape:export-xdpi="2522.53"
             inkscape:export-ydpi="2522.53" />
          <path
             id="rect2142"
             d="m 181.57755,744.80283 0.35356,-0.35354 13.41336,-13.41251 0.35356,-0.35354 -0.35356,-0.35354 -13.43546,-13.43461 -0.35356,-0.35354 -0.35357,0.35354 -13.41336,13.41251 -0.35356,0.35354 0.35356,0.35354 13.43546,13.43461 0.35357,0.35354 z m 0,-1.41417 -12.72833,-12.72752 12.70623,-12.70542 12.72833,12.72752 -12.70623,12.70542 z"
             style="fill:#ffffff;fill-opacity:1;stroke:none" />
          <path
             id="rect2144"
             d="m 175.625,708.65625 0,0.5 0,18.9375 0,0.5 0.5,0 18.96875,0 0.5,0 0,-0.5 0,-18.9375 0,-0.5 -0.5,0 -18.96875,0 -0.5,0 z m 1,1 17.96875,0 0,17.9375 -17.96875,0 0,-17.9375 z"
             style="fill:#ffffff;fill-opacity:1;stroke:none"
             inkscape:export-filename="/home/angenenr/Desktop/downloads/path2408.png"
             inkscape:export-xdpi="2522.53"
             inkscape:export-ydpi="2522.53" />
          <path
             id="rect2146"
             d="m 197.53327,760.79631 0.35356,-0.35354 13.39134,-13.39034 0.35357,-0.35354 -0.35357,-0.35354 -13.39134,-13.39033 -0.35356,-0.35354 -0.35357,0.35354 -13.39134,13.39033 -0.35356,0.35354 0.35356,0.35354 13.39134,13.39034 0.35357,0.35354 z m 0,-1.41416 -12.68421,-12.68326 12.68421,-12.68325 12.6842,12.68325 -12.6842,12.68326 z"
             style="fill:#ffffff;fill-opacity:1;stroke:none"
             inkscape:export-filename="/home/angenenr/Desktop/downloads/path2408.png"
             inkscape:export-xdpi="2522.53"
             inkscape:export-ydpi="2522.53" />
          <path
             id="rect2148"
             d="m 175.625,732.59375 0,0.5 0,19 0,0.5 0.5,0 19,0 0.5,0 0,-0.5 0,-19 0,-0.5 -0.5,0 -19,0 -0.5,0 z m 1,1 18,0 0,18 -18,0 0,-18 z"
             style="fill:#ffffff;fill-opacity:1;stroke:none"
             inkscape:export-filename="/home/angenenr/Desktop/downloads/path2408.png"
             inkscape:export-xdpi="2522.53"
             inkscape:export-ydpi="2522.53" />
          <path
             id="rect2150"
             d="m 213.57515,744.80283 0.35356,-0.35354 13.43546,-13.43461 0.35356,-0.35354 -0.35356,-0.35354 -13.43546,-13.4346 -0.35356,-0.35354 -0.35357,0.35354 -13.43545,13.4346 -0.35357,0.35354 0.35357,0.35354 13.43545,13.43461 0.35357,0.35354 z m 0,-1.41417 -12.72833,-12.72752 12.72833,-12.72752 12.72832,12.72752 -12.72832,12.72752 z"
             style="fill:#ffffff;fill-opacity:1;stroke:none" />
          <path
             id="rect2152"
             d="m 199.625,708.59375 0,0.5 0,19 0,0.5 0.5,0 19,0 0.5,0 0,-0.5 0,-19 0,-0.5 -0.5,0 -19,0 -0.5,0 z m 1,1 18,0 0,18 -18,0 0,-18 z"
             style="fill:#ffffff;fill-opacity:1;stroke:none"
             inkscape:export-filename="/home/angenenr/Desktop/downloads/path2408.png"
             inkscape:export-xdpi="2522.53"
             inkscape:export-ydpi="2522.53" />
          <path
             id="rect2154"
             d="m 199.625,732.59375 0,0.5 0,19 0,0.5 0.5,0 19,0 0.5,0 0,-0.5 0,-19 0,-0.5 -0.5,0 -19,0 -0.5,0 z m 1,1 18,0 0,18 -18,0 0,-18 z"
             style="fill:#ffffff;fill-opacity:1;stroke:none"
             inkscape:export-filename="/home/angenenr/Desktop/downloads/path2408.png"
             inkscape:export-xdpi="2522.53"
             inkscape:export-ydpi="2522.53" />
          <path
             style="fill:#262577;fill-opacity:1;stroke:#b091bc;stroke-width:0;stroke-linejoin:miter;stroke-miterlimit:4;stroke-opacity:0;stroke-dasharray:none"
             d="m 43.227364,24.13847 4.771875,-4.771875 2.483144,2.4813 2.483134,2.481301 0,2.290574 0,2.290575 -7.255011,0 -7.255017,0 4.771875,-4.771875 z"
             id="path2406"
             transform="translate(165.57634,698.65973)"
             inkscape:export-filename="/home/angenenr/Desktop/downloads/path2408.png"
             inkscape:export-xdpi="2522.53"
             inkscape:export-ydpi="2522.53" />
          <path
             style="fill:#932279;fill-opacity:1;stroke:#b091bc;stroke-width:0;stroke-linejoin:miter;stroke-miterlimit:4;stroke-opacity:0;stroke-dasharray:none"
             d="m 43.227364,24.13847 4.771875,-4.771875 2.483144,2.4813 2.483134,2.481301 0,2.290574 0,2.290575 -7.255011,0 -7.255017,0 4.771875,-4.771875 z"
             id="path2408"
             transform="translate(165.57634,698.65973)"
             inkscape:export-xdpi="2522.53"
             inkscape:export-ydpi="2522.53" />
        </g>
      </g>
      <g
         id="flowRoot2950"
         style="font-size:40px;font-style:normal;font-weight:normal;fill:#ffffff;fill-opacity:1;stroke:none;font-family:Bitstream Vera Sans"
         transform="translate(5.3908234,25.714286)">
        <path
           id="path4186"
           style="font-size:150px;text-align:center;text-anchor:middle;font-family:Denmark;-inkscape-font-specification:Denmark;fill:#ffffff"
           d="m 179.07031,920.4185 -46.35,0 c -4.70004,0 -9.35003,-0.65 -13.95,-1.95 -8.90002,-2.7 -15.95001,-8.89999 -21.149998,-18.6 -4.700006,-8.79997 -7.050004,-19.04996 -7.05,-30.75 -4e-6,-11.29994 2.099994,-21.29993 6.3,-30 4.599988,-9.59991 11.149978,-16.14991 19.649998,-19.65 6.59997,-2.6999 13.34996,-4.0499 20.25,-4.05 l 42,0 0,20.1 -43.65,0 c -7.10004,8e-5 -12.25003,3.85008 -15.45,11.55 -2.50003,6.00006 -3.75003,13.85006 -3.75,23.55 -3e-5,8.20004 1.59997,15.15003 4.8,20.85 3.69996,6.70002 8.89996,10.05002 15.6,10.05 l 42.75,-0.15 0,19.05" />
        <path
           id="path4188"
           style="font-size:150px;text-align:center;text-anchor:middle;font-family:Denmark;-inkscape-font-specification:Denmark;fill:#ffffff"
           d="m 258.02188,920.8685 -36.60001,0 c -8.90002,0 -16.65002,-3.8 -23.25,-11.4 -6.5,-7.69998 -9.75,-16.54998 -9.75,-26.55 0,-10.89995 3.55,-20.29995 10.65,-28.2 7.19998,-7.99993 15.19997,-11.99993 24,-12 l 34.8,0 0,16.05 -25.5,0 c -3.20004,6e-5 -5.95004,0.30006 -8.25,0.9 -2.20003,0.50006 -4.25003,1.55006 -6.15,3.15 -3.50003,3.00005 -5.25002,7.05005 -5.25,12.15 l 45,0 0,16.2 -44.85,0 c -2e-5,2.40002 0.24998,4.45002 0.75,6.15 0.59997,1.60002 1.74997,3.25002 3.45,4.95 1.69997,1.60001 3.69997,2.70001 6,3.3 2.39996,0.50001 5.29996,0.75001 8.7,0.75 l 26.25001,0 0,14.55" />
        <path
           id="path4190"
           style="font-size:150px;text-align:center;text-anchor:middle;font-family:Denmark;-inkscape-font-specification:Denmark;fill:#ffffff"
           d="m 345.02422,920.4185 -20.85,0 0,-51.15 c -6e-5,-1.29995 -0.30006,-2.44995 -0.9,-3.45 -0.60006,-1.09995 -1.45006,-2.14995 -2.55,-3.15 -2.00005,-1.69994 -4.30005,-2.54994 -6.9,-2.55 l -20.4,0 0,60.3 -20.85,0 0,-77.7 39.9,0 c 7.09994,7e-5 12.24994,0.40007 15.45,1.2 4.99993,1.20007 8.99993,3.85007 12,7.95 3.39992,4.80006 5.09992,10.05006 5.1,15.75 l 0,52.8" />
        <path
           id="path4192"
           style="font-size:150px;text-align:center;text-anchor:middle;font-family:Denmark;-inkscape-font-specification:Denmark;fill:#ffffff"
           d="m 406.66484,858.9185 -20.25,0 0,35.25 c -3e-5,3.20002 1.09997,5.85002 3.3,7.95 2.49996,2.10001 5.79996,3.15001 9.9,3.15 l 6.15,0 0,15.15 -19.35,0 c -5.80002,0 -10.75002,-2.1 -14.85,-6.3 -2.40001,-2.49999 -3.95001,-5.24999 -4.65,-8.25 -0.70001,-2.99999 -1.05001,-6.54998 -1.05,-10.65 l 0,-36.3 -13.2,0 0,-16.2 13.2,0 0,-27.3 20.55,0 0,27.3 20.25,0 0,16.2" />
        <path
           id="path4194"
           style="font-size:150px;text-align:center;text-anchor:middle;font-family:Denmark;-inkscape-font-specification:Denmark;fill:#ffffff"
           d="m 530.24375,867.7685 c -1.2e-4,20.40003 -5.65011,35.00001 -16.95,43.8 -9.20009,7.1 -22.60008,10.64999 -40.2,10.65 -19.50004,-10e-6 -33.90003,-4.1 -43.2,-12.3 -10.20001,-8.99998 -15.3,-23.44997 -15.3,-43.35 0,-16.29993 4.54999,-28.99992 13.65,-38.1 9.89997,-9.8999 24.69996,-14.8499 44.4,-14.85 21.69992,10e-5 36.9999,4.7501 45.9,14.25 7.79988,8.40008 11.69988,21.70007 11.7,39.9 m -26.7,-0.6 c -9e-5,-10.29994 -2.45009,-18.49993 -7.35,-24.6 -5.50008,-6.79992 -13.65007,-10.19992 -24.45,-10.2 -10.60005,8e-5 -18.60004,3.65008 -24,10.95 -4.50003,6.10007 -6.75003,14.05006 -6.75,23.85 -3e-5,11.30004 1.79997,19.65003 5.4,25.05 4.99996,7.50002 14.24995,11.25001 27.75,11.25 11.39992,1e-5 19.39992,-3.64998 24,-10.95 3.59991,-5.69997 5.39991,-14.14996 5.4,-25.35" />
        <path
           id="path4196"
           style="font-size:150px;text-align:center;text-anchor:middle;font-family:Denmark;-inkscape-font-specification:Denmark;fill:#ffffff"
           d="m 652.65547,887.8685 c -1.2e-4,9.20002 -3.05012,16.95001 -9.15,23.25 -6.1001,6.3 -13.8501,9.45 -23.25,9.45 l -74.25,-0.15 0,-18.9 61.2,0 c 4.09992,2e-5 7.54992,-0.94998 10.35,-2.85 3.19991,-2.19998 4.79991,-5.19998 4.8,-9 -9e-5,-8.89996 -6.30008,-13.34996 -18.9,-13.35 l -30.9,0 c -8.90003,4e-5 -16.70002,-2.74996 -23.4,-8.25 -6.70001,-5.49995 -10.05001,-12.49994 -10.05,-21 -10e-6,-9.39992 3.24999,-16.99991 9.75,-22.8 6.59998,-5.8999 15.24997,-8.8499 25.95,-8.85 l 70.95,0 0,18 -62.55,0 c -2.80005,8e-5 -5.65004,1.20008 -8.55,3.6 -2.80004,2.30008 -4.20004,5.05007 -4.2,8.25 -4e-5,3.60007 1.34996,6.65007 4.05,9.15 2.79996,2.40006 6.14995,3.60006 10.05,3.6 l 34.05,0 c 10.5999,6e-5 18.8999,2.75006 24.9,8.25 6.09988,5.40005 9.14988,12.60004 9.15,21.6" />
      </g>
    </g>
  </g>
</svg>
