<?xml version="1.0" encoding="UTF-8" standalone="no"?>
<!-- Created with Inkscape (http://www.inkscape.org/) -->

<svg
   xmlns:dc="http://purl.org/dc/elements/1.1/"
   xmlns:cc="http://creativecommons.org/ns#"
   xmlns:rdf="http://www.w3.org/1999/02/22-rdf-syntax-ns#"
   xmlns:svg="http://www.w3.org/2000/svg"
   xmlns="http://www.w3.org/2000/svg"
   xmlns:sodipodi="http://sodipodi.sourceforge.net/DTD/sodipodi-0.dtd"
   xmlns:inkscape="http://www.inkscape.org/namespaces/inkscape"
   width="10cm"
   height="10cm"
   id="svg4433"
   version="1.1"
   inkscape:version="0.91pre0 r13343"
   viewBox="0 0 354.33069 354.33072"
   sodipodi:docname="tshirt-centos10-front-ten.svg"
   inkscape:export-filename="/home/tigert/git/CentOS/Promo-Artwork/tshirts/centos-10/tshirt-centos10-front.png"
   inkscape:export-xdpi="522.60999"
   inkscape:export-ydpi="522.60999">
  <defs
     id="defs4435" />
  <sodipodi:namedview
     id="base"
     pagecolor="#201e3a"
     bordercolor="#666666"
     borderopacity="1.0"
     inkscape:pageopacity="0"
     inkscape:pageshadow="2"
     inkscape:zoom="0.5"
     inkscape:cx="33.95455"
     inkscape:cy="-42.03815"
     inkscape:document-units="px"
     inkscape:current-layer="layer1"
     showgrid="false"
     inkscape:window-width="2560"
     inkscape:window-height="1375"
     inkscape:window-x="0"
     inkscape:window-y="27"
     inkscape:window-maximized="1"
     fit-margin-top="10"
     fit-margin-left="10"
     fit-margin-right="10"
     fit-margin-bottom="10"
     units="cm" />
  <metadata
     id="metadata4438">
    <rdf:RDF>
      <cc:Work
         rdf:about="">
        <dc:format>image/svg+xml</dc:format>
        <dc:type
           rdf:resource="http://purl.org/dc/dcmitype/StillImage" />
        <dc:title></dc:title>
        <cc:license
           rdf:resource="http://creativecommons.org/licenses/by-sa/3.0/" />
      </cc:Work>
      <cc:License
         rdf:about="http://creativecommons.org/licenses/by-sa/3.0/">
        <cc:permits
           rdf:resource="http://creativecommons.org/ns#Reproduction" />
        <cc:permits
           rdf:resource="http://creativecommons.org/ns#Distribution" />
        <cc:requires
           rdf:resource="http://creativecommons.org/ns#Notice" />
        <cc:requires
           rdf:resource="http://creativecommons.org/ns#Attribution" />
        <cc:permits
           rdf:resource="http://creativecommons.org/ns#DerivativeWorks" />
        <cc:requires
           rdf:resource="http://creativecommons.org/ns#ShareAlike" />
      </cc:License>
    </rdf:RDF>
  </metadata>
  <g
     inkscape:label="Layer 1"
     inkscape:groupmode="layer"
     id="layer1"
     transform="translate(-10.195567,-924.01871)">
    <g
       style="display:inline"
       id="g4258"
       transform="matrix(3.1379626,0,0,3.1379626,-1145.4668,202.03937)">
      <g
         style="color:#000000;font-style:normal;font-variant:normal;font-weight:300;font-stretch:normal;font-size:4.40716219px;line-height:126.99999809%;font-family:Open Sans;-inkscape-font-specification:Open Sans Light;text-align:end;writing-mode:lr-tb;text-anchor:end;clip-rule:nonzero;display:inline;overflow:visible;visibility:visible;isolation:auto;color-interpolation:sRGB;color-interpolation-filters:linearRGB;fill:#ffffff;fill-opacity:1;fill-rule:evenodd;stroke:none;stroke-width:1;marker:none;paint-order:normal;color-rendering:auto;image-rendering:auto;shape-rendering:auto;text-rendering:auto;enable-background:accumulate"
         id="text4381">
        <path
           d="m 388.18149,328.56554 2.44029,-5.24857 4.14463,0 -4.65787,8.62818 0,5.5294 -3.85411,0 0,-5.41319 -4.65786,-8.74439 4.16399,0 2.42093,5.24857 z"
           style="font-style:normal;font-variant:normal;font-weight:800;font-stretch:normal;font-size:19.83222771px;font-family:Open Sans;-inkscape-font-specification:Open Sans Ultra-Bold;text-align:center;letter-spacing:6.35737419px;text-anchor:middle;fill:#ffffff;stroke:none"
           id="path4864" />
        <path
           d="m 411.05926,337.47455 -8.40545,0 0,-14.15758 8.40545,0 0,3.06974 -4.58039,0 0,2.22725 4.24146,0 0,3.06973 -4.24146,0 0,2.67271 4.58039,0 0,3.11815 z"
           style="font-style:normal;font-variant:normal;font-weight:800;font-stretch:normal;font-size:19.83222771px;font-family:Open Sans;-inkscape-font-specification:Open Sans Ultra-Bold;text-align:center;letter-spacing:6.35737419px;text-anchor:middle;fill:#ffffff;stroke:none"
           id="path4866" />
        <path
           d="m 428.58195,337.47455 -0.69723,-2.65334 -4.59976,0 -0.71659,2.65334 -4.20273,0 4.61913,-14.21568 5.10331,0 4.67723,14.21568 -4.18336,0 z m -1.49129,-5.79086 -0.61007,-2.32409 q -0.21305,-0.77469 -0.52292,-2.00452 -0.3002,-1.22983 -0.39704,-1.76244 -0.0872,0.49387 -0.34861,1.62686 -0.25178,1.133 -1.13299,4.46419 l 3.01163,0 z"
           style="font-style:normal;font-variant:normal;font-weight:800;font-stretch:normal;font-size:19.83222771px;font-family:Open Sans;-inkscape-font-specification:Open Sans Ultra-Bold;text-align:center;letter-spacing:6.35737419px;text-anchor:middle;fill:#ffffff;stroke:none"
           id="path4868" />
        <path
           d="m 444.48745,332.32282 0,5.15173 -3.82506,0 0,-14.15758 4.6385,0 q 5.77148,0 5.77148,4.18336 0,2.45966 -2.40156,3.8057 l 4.12526,6.16852 -4.3383,0 -3.00195,-5.15173 -0.96837,0 z m 0,-2.87606 0.7166,0 q 2.00453,0 2.00453,-1.77212 0,-1.46224 -1.9658,-1.46224 l -0.75533,0 0,3.23436 z"
           style="font-style:normal;font-variant:normal;font-weight:800;font-stretch:normal;font-size:19.83222771px;font-family:Open Sans;-inkscape-font-specification:Open Sans Ultra-Bold;text-align:center;letter-spacing:6.35737419px;text-anchor:middle;fill:#ffffff;stroke:none"
           id="path4870" />
        <path
           d="m 469.71837,333.17498 q 0,1.31699 -0.66818,2.34346 -0.66817,1.01679 -1.92706,1.58813 -1.25888,0.56165 -2.95353,0.56165 -1.41382,0 -2.3725,-0.19367 -0.95869,-0.20336 -1.99485,-0.69723 l 0,-3.40866 q 1.09426,0.56165 2.27567,0.88121 1.18142,0.30988 2.16915,0.30988 0.85217,0 1.2492,-0.29051 0.39703,-0.30019 0.39703,-0.76501 0,-0.29051 -0.16462,-0.50355 -0.15494,-0.22273 -0.51324,-0.44545 -0.34861,-0.22273 -1.87863,-0.91027 -1.38477,-0.62944 -2.082,-1.22015 -0.68754,-0.5907 -1.02647,-1.35572 -0.32925,-0.76501 -0.32925,-1.81085 0,-1.95611 1.42351,-3.05037 1.4235,-1.09426 3.91221,-1.09426 2.1982,0 4.48356,1.01679 l -1.17173,2.95353 q -1.98516,-0.91027 -3.42803,-0.91027 -0.74565,0 -1.08458,0.26146 -0.33893,0.26146 -0.33893,0.64881 0,0.4164 0.42609,0.74565 0.43576,0.32924 2.34345,1.20078 1.83022,0.82311 2.53713,1.77212 0.7166,0.93932 0.7166,2.3725 z"
           style="font-style:normal;font-variant:normal;font-weight:800;font-stretch:normal;font-size:19.83222771px;font-family:Open Sans;-inkscape-font-specification:Open Sans Ultra-Bold;text-align:center;letter-spacing:6.35737419px;text-anchor:middle;fill:#ffffff;stroke:none"
           id="path4872" />
      </g>
      <path
         style="color:#000000;text-decoration:none;text-decoration-line:none;text-decoration-color:currentColor;clip-rule:nonzero;display:inline;overflow:visible;visibility:visible;opacity:1;isolation:auto;color-interpolation:sRGB;color-interpolation-filters:linearRGB;fill:none;fill-opacity:1;fill-rule:nonzero;stroke:#ffffff;stroke-width:15.99999905;stroke-linecap:round;stroke-linejoin:miter;stroke-miterlimit:4;stroke-dasharray:none;stroke-dashoffset:0;stroke-opacity:1;marker:none;paint-order:normal;color-rendering:auto;image-rendering:auto;shape-rendering:auto;text-rendering:auto;enable-background:accumulate"
         d="m 433.34739,245.61577 18.96896,0 c 5.39412,0 9.73667,4.34255 9.73667,9.73667 l 0,39.15876 c 0,5.39411 -4.34255,9.73667 -9.73667,9.73667 l -18.96896,0 c -5.39412,0 -9.73667,-4.34256 -9.73667,-9.73667 l 0,-39.15876 c 0,-5.39412 4.34255,-9.73667 9.73667,-9.73667 z"
         id="rect4387" />
      <path
         sodipodi:nodetypes="ccccccc"
         inkscape:connector-curvature="0"
         id="path4389"
         d="m 400.06207,237.4247 -18.82236,2.64583 0,13.38143 2.82222,0 0,58.91156 16.00014,0 z"
         style="color:#000000;font-style:normal;font-variant:normal;font-weight:normal;font-stretch:normal;font-size:medium;line-height:normal;font-family:sans-serif;text-indent:0;text-align:start;text-decoration:none;text-decoration-line:none;text-decoration-color:currentColor;letter-spacing:normal;word-spacing:normal;text-transform:none;direction:ltr;block-progression:tb;writing-mode:lr-tb;baseline-shift:baseline;text-anchor:start;clip-rule:nonzero;display:inline;overflow:visible;visibility:visible;opacity:1;isolation:auto;color-interpolation:sRGB;color-interpolation-filters:linearRGB;fill:#ffffff;fill-opacity:1;fill-rule:nonzero;stroke:none;stroke-width:15.99999905;stroke-linecap:round;stroke-linejoin:miter;stroke-miterlimit:4;stroke-dasharray:none;stroke-dashoffset:0;stroke-opacity:1;marker:none;paint-order:normal;color-rendering:auto;image-rendering:auto;shape-rendering:auto;text-rendering:auto;enable-background:accumulate" />
    </g>
  </g>
</svg>
