<?xml version="1.0" encoding="UTF-8" standalone="no"?>
<!-- Created with Inkscape (http://www.inkscape.org/) -->

<svg
   xmlns:dc="http://purl.org/dc/elements/1.1/"
   xmlns:cc="http://creativecommons.org/ns#"
   xmlns:rdf="http://www.w3.org/1999/02/22-rdf-syntax-ns#"
   xmlns:svg="http://www.w3.org/2000/svg"
   xmlns="http://www.w3.org/2000/svg"
   xmlns:sodipodi="http://sodipodi.sourceforge.net/DTD/sodipodi-0.dtd"
   xmlns:inkscape="http://www.inkscape.org/namespaces/inkscape"
   width="30cm"
   height="40cm"
   id="svg4433"
   version="1.1"
   inkscape:version="0.91pre0 r13343"
   viewBox="0 0 1062.9921 1417.3229"
   sodipodi:docname="tshirt-centos10-back.svg"
   inkscape:export-filename="/home/tigert/git/CentOS/Promo-Artwork/tshirts/centos-10/tshirt-centos10-front.png"
   inkscape:export-xdpi="522.60999"
   inkscape:export-ydpi="522.60999">
  <defs
     id="defs4435" />
  <sodipodi:namedview
     id="base"
     pagecolor="#201e3a"
     bordercolor="#666666"
     borderopacity="1.0"
     inkscape:pageopacity="0"
     inkscape:pageshadow="2"
     inkscape:zoom="0.5"
     inkscape:cx="579.95455"
     inkscape:cy="601.96185"
     inkscape:document-units="px"
     inkscape:current-layer="layer1"
     showgrid="false"
     inkscape:window-width="2560"
     inkscape:window-height="1375"
     inkscape:window-x="0"
     inkscape:window-y="27"
     inkscape:window-maximized="1"
     fit-margin-top="10"
     fit-margin-left="10"
     fit-margin-right="10"
     fit-margin-bottom="10"
     units="cm" />
  <metadata
     id="metadata4438">
    <rdf:RDF>
      <cc:Work
         rdf:about="">
        <dc:format>image/svg+xml</dc:format>
        <dc:type
           rdf:resource="http://purl.org/dc/dcmitype/StillImage" />
        <dc:title />
      </cc:Work>
    </rdf:RDF>
  </metadata>
  <g
     inkscape:label="Layer 1"
     inkscape:groupmode="layer"
     id="layer1"
     transform="translate(-10.195567,138.97348)">
    <g
       transform="matrix(9.9476498,0,0,9.9476498,-3657.3384,-2051.8758)"
       style="display:inline"
       id="g4274">
      <g
         inkscape:label="Layer 1"
         id="layer1-5"
         transform="matrix(0.51835394,0,0,0.51835394,740.67015,-964.21617)">
        <g
           xml:space="default"
           transform="matrix(0.69485395,0,0,0.69485395,-221.43917,698.53492)"
           style="font-style:normal;font-weight:normal;font-size:52.86945343px;line-height:832.99999237%;font-family:Sans;letter-spacing:0px;word-spacing:0px;fill:#ffffff;fill-opacity:1;stroke:none"
           id="text12404"
           inkscape:export-filename="/home/tigert/git/cosmos-web/static/images/use5531.png"
           inkscape:export-xdpi="90"
           inkscape:export-ydpi="90">
          <path
             xml:space="default"
             d="m -594.03802,2270.3323 -16.33666,0 q -2.48486,0 -4.91686,-0.6873 -4.70538,-1.4275 -7.45459,-6.5558 -2.48486,-4.6526 -2.48486,-10.8383 0,-5.9742 2.22051,-10.5739 2.432,-5.0754 6.9259,-6.9259 3.48939,-1.4274 7.13738,-1.4274 l 14.80344,0 0,7.0845 -15.38501,0 q -3.75373,0 -5.44555,4.0709 -1.32174,3.1722 -1.32174,8.3005 0,4.3353 1.69183,7.3489 1.95617,3.5422 5.49842,3.5422 l 15.06779,-0.053 0,6.7144 z"
             style="font-variant:normal;font-stretch:normal;font-family:Denmark;-inkscape-font-specification:Denmark;fill:#ffffff;fill-opacity:1"
             id="path4186"
             inkscape:connector-curvature="0" />
          <path
             d="m -566.21051,2270.4909 -12.90015,0 c -3.13692,0 -5.86851,-1.3394 -8.19476,-4.0181 -2.29101,-2.7139 -3.43652,-5.8332 -3.43652,-9.3579 0,-3.8419 1.25124,-7.155 3.75373,-9.9394 2.53773,-2.8197 5.35744,-4.2296 8.45912,-4.2296 l 12.26571,0 0,5.657 -8.98781,0 c -1.12788,0 -2.09715,0.1057 -2.90782,0.3172 -0.77542,0.1763 -1.49797,0.5464 -2.16765,1.1103 -1.23362,1.0574 -1.85043,2.6397 -1.85043,4.4372 l 15.86084,0 0,5.7099 -15.80797,0 c 0,0.8459 0.0881,1.4137 0.26435,2.0129 0.21148,0.5639 0.61681,1.1455 1.216,1.7447 0.59919,0.5639 1.30411,0.9516 2.11478,1.1631 0.84591,0.1762 1.86805,0.2643 3.06642,0.2643 l 9.25216,0 z"
             style="font-variant:normal;font-stretch:normal;font-family:Denmark;-inkscape-font-specification:Denmark;fill:#ffffff;fill-opacity:1"
             id="path4188"
             inkscape:connector-curvature="0"
             xml:space="default"
             sodipodi:nodetypes="cscscsccscccccccccscc" />
          <path
             d="m -535.44214,2270.3323 -7.34885,0 0,-18.0285 q 0,-0.6873 -0.31722,-1.216 -0.31722,-0.5816 -0.89878,-1.1103 -1.05739,-0.8987 -2.432,-0.8987 l -7.19024,0 0,21.2535 -7.34886,0 0,-27.3864 14.06328,0 q 3.75373,0 5.44555,0.423 2.64347,0.6344 4.22956,2.802 1.79756,2.5378 1.79756,5.5513 l 0,18.6101 z"
             style="font-variant:normal;font-stretch:normal;font-family:Denmark;-inkscape-font-specification:Denmark;fill:#ffffff;fill-opacity:1"
             id="path4190"
             inkscape:connector-curvature="0"
             xml:space="default" />
          <path
             d="m -513.2161,2248.6558 -7.13738,0 0,12.4243 c 0,1.1279 0.38771,2.0619 1.16313,2.8021 0.88116,0.7402 2.04429,1.1103 3.48939,1.1103 l 2.16764,0 0,5.3398 -6.82016,0 c -2.04428,0 -4.28897,-0.7402 -5.73407,-2.2205 -0.84591,-0.8812 -1.39223,-1.8505 -1.63895,-2.9079 -0.24673,-1.0573 -0.37009,-2.3086 -0.37009,-3.7537 l 0,-12.7944 -4.65251,0 0,-5.7099 4.65251,0 0,-9.6222 7.74311,0 0,9.6222 7.13738,0 z"
             style="font-variant:normal;font-stretch:normal;font-family:Denmark;-inkscape-font-specification:Denmark;fill:#ffffff;fill-opacity:1"
             id="path4192"
             inkscape:connector-curvature="0"
             xml:space="default"
             sodipodi:nodetypes="ccscsccsccsccccccccc" />
          <path
             d="m -469.40911,2251.7751 q 0,10.7854 -5.97424,15.4379 -4.86399,3.7537 -14.16902,3.7537 -10.30954,0 -15.2264,-4.3353 -5.39268,-4.7582 -5.39268,-15.2793 0,-8.6177 4.81112,-13.4288 5.23407,-5.2341 15.64935,-5.2341 11.47268,0 16.17806,5.0226 4.12381,4.4411 4.12381,14.0633 z m -9.41076,-0.2115 q 0,-5.4455 -2.5906,-8.6706 -2.90782,-3.5951 -8.61772,-3.5951 -5.60416,0 -8.45912,3.8595 -2.37912,3.225 -2.37912,8.4062 0,5.9743 1.9033,8.8292 2.64347,3.9652 9.78085,3.9652 6.02712,0 8.45911,-3.8594 1.9033,-3.0136 1.9033,-8.935 z"
             style="font-variant:normal;font-stretch:normal;font-family:Denmark;-inkscape-font-specification:Denmark;fill:#ffffff;fill-opacity:1"
             id="path4194"
             inkscape:connector-curvature="0"
             xml:space="default" />
          <path
             d="m -426.26351,2258.8596 q 0,4.864 -3.22503,8.1948 -3.22504,3.3307 -8.19477,3.3307 l -26.17038,-0.053 0,-6.6616 21.57074,0 q 2.16765,0 3.64799,-1.0045 1.69183,-1.1631 1.69183,-3.1722 0,-4.7053 -6.66156,-4.7053 l -10.8911,0 q -4.70538,0 -8.24764,-2.9079 -3.54225,-2.9078 -3.54225,-7.4017 0,-4.9697 3.43651,-8.0361 3.48939,-3.1193 9.14642,-3.1193 l 25.00725,0 0,6.3443 -22.04656,0 q -1.48035,0 -3.01356,1.2689 -1.48035,1.216 -1.48035,2.9078 0,1.9033 1.42748,3.225 1.48034,1.2689 3.54225,1.2689 l 12.00137,0 q 5.60416,0 8.77633,2.9078 3.22503,2.855 3.22503,7.6132 z"
             style="font-variant:normal;font-stretch:normal;font-family:Denmark;-inkscape-font-specification:Denmark;fill:#ffffff;fill-opacity:1"
             id="path4196"
             inkscape:connector-curvature="0"
             xml:space="default" />
        </g>
        <path
           transform="matrix(-0.71249676,0.7016754,-0.71249676,-0.7016754,0,0)"
           style="color:#000000;clip-rule:nonzero;display:inline;overflow:visible;visibility:visible;color-interpolation:sRGB;color-interpolation-filters:linearRGB;fill:#932279;fill-opacity:1;fill-rule:nonzero;stroke:#ffffff;stroke-width:1.00005853;stroke-miterlimit:4;stroke-dasharray:none;marker:none;color-rendering:auto;image-rendering:auto;shape-rendering:auto;text-rendering:auto;enable-background:accumulate"
           inkscape:transform-center-x="12.562506"
           d="m 2096.5435,-1127.9958 14.086,0 0,14.086 -14.086,0 z"
           id="rect4180-2" />
        <path
           transform="matrix(-0.70494576,-0.70926121,0.70494576,-0.70926121,0,0)"
           style="color:#000000;clip-rule:nonzero;display:inline;overflow:visible;visibility:visible;color-interpolation:sRGB;color-interpolation-filters:linearRGB;fill:#efa724;fill-opacity:1;fill-rule:nonzero;stroke:#ffffff;stroke-width:1.0000093;stroke-miterlimit:4;stroke-dasharray:none;marker:none;color-rendering:auto;image-rendering:auto;shape-rendering:auto;text-rendering:auto;enable-background:accumulate"
           inkscape:transform-center-x="-0.00019222452"
           inkscape:transform-center-y="-12.450121"
           d="m -1105.6205,-2081.5786 14.0235,0 0,14.0235 -14.0235,0 z"
           id="rect4182-9" />
        <path
           transform="matrix(-0.71249676,0.7016754,-0.71249676,-0.7016754,0,0)"
           style="color:#000000;clip-rule:nonzero;display:inline;overflow:visible;visibility:visible;color-interpolation:sRGB;color-interpolation-filters:linearRGB;fill:#9ccd2a;fill-opacity:1;fill-rule:nonzero;stroke:#ffffff;stroke-width:1.00005853;stroke-miterlimit:4;stroke-dasharray:none;marker:none;color-rendering:auto;image-rendering:auto;shape-rendering:auto;text-rendering:auto;enable-background:accumulate"
           inkscape:transform-center-x="12.562506"
           d="m 2096.6753,-1144.9683 14.086,0 0,14.086 -14.086,0 z"
           id="rect4184-9" />
        <path
           transform="matrix(-0.70494576,-0.70926121,0.70494576,-0.70926121,0,0)"
           style="color:#000000;clip-rule:nonzero;display:inline;overflow:visible;visibility:visible;color-interpolation:sRGB;color-interpolation-filters:linearRGB;fill:#262577;fill-opacity:1;fill-rule:nonzero;stroke:#ffffff;stroke-width:1.0000093;stroke-miterlimit:4;stroke-dasharray:none;marker:none;color-rendering:auto;image-rendering:auto;shape-rendering:auto;text-rendering:auto;enable-background:accumulate"
           inkscape:transform-center-x="-0.00019222452"
           inkscape:transform-center-y="-12.450121"
           d="m -1122.5913,-2081.5288 14.0235,0 0,14.0235 -14.0235,0 z"
           id="rect4186-8" />
        <path
           style="color:#000000;clip-rule:nonzero;display:inline;overflow:visible;visibility:visible;color-interpolation:sRGB;color-interpolation-filters:linearRGB;fill:#fce94f;stroke:none;stroke-width:0.99999994;marker:none;color-rendering:auto;image-rendering:auto;shape-rendering:auto;text-rendering:auto;enable-background:accumulate"
           d="m -703.53033,2247.0137 13.4993,0 0,13.4373 -13.4993,0 z"
           id="rect4188-8" />
        <path
           style="color:#000000;clip-rule:nonzero;display:inline;overflow:visible;visibility:visible;color-interpolation:sRGB;color-interpolation-filters:linearRGB;fill:#efa724;fill-opacity:1;stroke:none;stroke-width:0.99999994;marker:none;color-rendering:auto;image-rendering:auto;shape-rendering:auto;text-rendering:auto;enable-background:accumulate"
           d="m -686.03027,2264.5391 13.40074,0 0,13.4999 -13.40074,0 z"
           id="rect4190-5" />
        <path
           style="color:#000000;clip-rule:nonzero;display:inline;overflow:visible;visibility:visible;color-interpolation:sRGB;color-interpolation-filters:linearRGB;fill:#932279;fill-opacity:1;stroke:none;stroke-width:0.99999988;marker:none;color-rendering:auto;image-rendering:auto;shape-rendering:auto;text-rendering:auto;enable-background:accumulate"
           d="m -685.97626,2247.1069 13.44592,0 0,13.432 -13.44592,0 z"
           id="rect4192-5" />
        <path
           style="color:#000000;clip-rule:nonzero;display:inline;overflow:visible;visibility:visible;color-interpolation:sRGB;color-interpolation-filters:linearRGB;fill:#9ccd2a;fill-opacity:1;stroke:#ffffff;stroke-width:1;stroke-miterlimit:4;stroke-dasharray:none;marker:none;color-rendering:auto;image-rendering:auto;shape-rendering:auto;text-rendering:auto;enable-background:accumulate"
           d="m -704.03033,2246.5391 13.99935,0 0,13.9179 -13.99935,0 z"
           id="rect4168-3" />
        <path
           style="color:#000000;clip-rule:nonzero;display:inline;overflow:visible;visibility:visible;color-interpolation:sRGB;color-interpolation-filters:linearRGB;fill:none;stroke:#ffffff;stroke-width:0.99999988;stroke-miterlimit:4;stroke-dasharray:none;marker:none;color-rendering:auto;image-rendering:auto;shape-rendering:auto;text-rendering:auto;enable-background:accumulate"
           d="m -686.03027,2264.5391 13.91354,0 0,13.9999 -13.91354,0 z"
           id="rect4170-4" />
        <path
           style="color:#000000;clip-rule:nonzero;display:inline;overflow:visible;visibility:visible;color-interpolation:sRGB;color-interpolation-filters:linearRGB;fill:none;stroke:#ffffff;stroke-width:1;stroke-miterlimit:4;stroke-dasharray:none;marker:none;color-rendering:auto;image-rendering:auto;shape-rendering:auto;text-rendering:auto;enable-background:accumulate"
           d="m -685.97986,2246.6208 13.94952,0 0,13.918 -13.94952,0 z"
           id="rect4172-7" />
        <path
           style="color:#000000;clip-rule:nonzero;display:inline;overflow:visible;visibility:visible;color-interpolation:sRGB;color-interpolation-filters:linearRGB;fill:#262577;fill-opacity:1;stroke:#ffffff;stroke-width:1;stroke-miterlimit:4;stroke-dasharray:none;marker:none;color-rendering:auto;image-rendering:auto;shape-rendering:auto;text-rendering:auto;enable-background:accumulate"
           d="m -704.02917,2264.5396 13.99878,0 0,13.9987 -13.99878,0 z"
           id="rect4174-5" />
        <path
           transform="matrix(-0.71249676,0.7016754,-0.71249676,-0.7016754,0,0)"
           style="color:#000000;clip-rule:nonzero;display:inline;overflow:visible;visibility:visible;color-interpolation:sRGB;color-interpolation-filters:linearRGB;fill:none;stroke:#ffffff;stroke-width:1.00005853;stroke-miterlimit:4;stroke-dasharray:none;marker:none;color-rendering:auto;image-rendering:auto;shape-rendering:auto;text-rendering:auto;enable-background:accumulate"
           inkscape:transform-center-x="12.562506"
           d="m 2096.5435,-1127.9958 14.086,0 0,14.086 -14.086,0 z"
           id="rect4208-9" />
        <path
           transform="matrix(-0.70494576,-0.70926121,0.70494576,-0.70926121,0,0)"
           style="color:#000000;clip-rule:nonzero;display:inline;overflow:visible;visibility:visible;color-interpolation:sRGB;color-interpolation-filters:linearRGB;fill:none;stroke:#ffffff;stroke-width:1.0000093;stroke-miterlimit:4;stroke-dasharray:none;marker:none;color-rendering:auto;image-rendering:auto;shape-rendering:auto;text-rendering:auto;enable-background:accumulate"
           inkscape:transform-center-x="-0.00019222452"
           inkscape:transform-center-y="-12.450121"
           d="m -1105.6202,-2081.5786 14.0235,0 0,14.0235 -14.0235,0 z"
           id="rect4210-6" />
        <path
           transform="matrix(-0.71249676,0.7016754,-0.71249676,-0.7016754,0,0)"
           style="color:#000000;clip-rule:nonzero;display:inline;overflow:visible;visibility:visible;color-interpolation:sRGB;color-interpolation-filters:linearRGB;fill:none;stroke:#ffffff;stroke-width:1.00005853;stroke-miterlimit:4;stroke-dasharray:none;marker:none;color-rendering:auto;image-rendering:auto;shape-rendering:auto;text-rendering:auto;enable-background:accumulate"
           inkscape:transform-center-x="12.562506"
           d="m 2096.6753,-1144.9683 14.086,0 0,14.086 -14.086,0 z"
           id="rect4212-9" />
        <path
           transform="matrix(-0.70494576,-0.70926121,0.70494576,-0.70926121,0,0)"
           style="color:#000000;clip-rule:nonzero;display:inline;overflow:visible;visibility:visible;color-interpolation:sRGB;color-interpolation-filters:linearRGB;fill:none;stroke:#ffffff;stroke-width:1.0000093;stroke-miterlimit:4;stroke-dasharray:none;marker:none;color-rendering:auto;image-rendering:auto;shape-rendering:auto;text-rendering:auto;enable-background:accumulate"
           inkscape:transform-center-x="-0.00019222452"
           inkscape:transform-center-y="-12.450121"
           d="m -1122.5912,-2081.5288 14.0235,0 0,14.0235 -14.0235,0 z"
           id="rect4214-2" />
      </g>
      <g
         transform="translate(-1.1288889,-7.3377784)"
         id="g4258">
        <g
           style="color:#000000;font-style:normal;font-variant:normal;font-weight:300;font-stretch:normal;font-size:4.40716219px;line-height:126.99999809%;font-family:Open Sans;-inkscape-font-specification:Open Sans Light;text-align:end;writing-mode:lr-tb;text-anchor:end;clip-rule:nonzero;display:inline;overflow:visible;visibility:visible;isolation:auto;color-interpolation:sRGB;color-interpolation-filters:linearRGB;fill:#ffffff;fill-opacity:1;fill-rule:evenodd;stroke:none;stroke-width:1;marker:none;paint-order:normal;color-rendering:auto;image-rendering:auto;shape-rendering:auto;text-rendering:auto;enable-background:accumulate"
           id="text4381">
          <path
             d="m 388.18149,328.56554 2.44029,-5.24857 4.14463,0 -4.65787,8.62818 0,5.5294 -3.85411,0 0,-5.41319 -4.65786,-8.74439 4.16399,0 2.42093,5.24857 z"
             style="font-style:normal;font-variant:normal;font-weight:800;font-stretch:normal;font-size:19.83222771px;font-family:Open Sans;-inkscape-font-specification:Open Sans Ultra-Bold;text-align:center;letter-spacing:6.35737419px;text-anchor:middle;fill:#ffffff;stroke:none"
             id="path5717" />
          <path
             d="m 411.05926,337.47455 -8.40545,0 0,-14.15758 8.40545,0 0,3.06974 -4.58039,0 0,2.22725 4.24146,0 0,3.06973 -4.24146,0 0,2.67271 4.58039,0 0,3.11815 z"
             style="font-style:normal;font-variant:normal;font-weight:800;font-stretch:normal;font-size:19.83222771px;font-family:Open Sans;-inkscape-font-specification:Open Sans Ultra-Bold;text-align:center;letter-spacing:6.35737419px;text-anchor:middle;fill:#ffffff;stroke:none"
             id="path5719" />
          <path
             d="m 428.58195,337.47455 -0.69723,-2.65334 -4.59976,0 -0.71659,2.65334 -4.20273,0 4.61913,-14.21568 5.10331,0 4.67723,14.21568 -4.18336,0 z m -1.49129,-5.79086 -0.61007,-2.32409 q -0.21305,-0.77469 -0.52292,-2.00452 -0.3002,-1.22983 -0.39704,-1.76244 -0.0872,0.49387 -0.34861,1.62686 -0.25178,1.133 -1.13299,4.46419 l 3.01163,0 z"
             style="font-style:normal;font-variant:normal;font-weight:800;font-stretch:normal;font-size:19.83222771px;font-family:Open Sans;-inkscape-font-specification:Open Sans Ultra-Bold;text-align:center;letter-spacing:6.35737419px;text-anchor:middle;fill:#ffffff;stroke:none"
             id="path5721" />
          <path
             d="m 444.48745,332.32282 0,5.15173 -3.82506,0 0,-14.15758 4.6385,0 q 5.77148,0 5.77148,4.18336 0,2.45966 -2.40156,3.8057 l 4.12526,6.16852 -4.3383,0 -3.00195,-5.15173 -0.96837,0 z m 0,-2.87606 0.7166,0 q 2.00453,0 2.00453,-1.77212 0,-1.46224 -1.9658,-1.46224 l -0.75533,0 0,3.23436 z"
             style="font-style:normal;font-variant:normal;font-weight:800;font-stretch:normal;font-size:19.83222771px;font-family:Open Sans;-inkscape-font-specification:Open Sans Ultra-Bold;text-align:center;letter-spacing:6.35737419px;text-anchor:middle;fill:#ffffff;stroke:none"
             id="path5723" />
          <path
             d="m 469.71837,333.17498 q 0,1.31699 -0.66818,2.34346 -0.66817,1.01679 -1.92706,1.58813 -1.25888,0.56165 -2.95353,0.56165 -1.41382,0 -2.3725,-0.19367 -0.95869,-0.20336 -1.99485,-0.69723 l 0,-3.40866 q 1.09426,0.56165 2.27567,0.88121 1.18142,0.30988 2.16915,0.30988 0.85217,0 1.2492,-0.29051 0.39703,-0.30019 0.39703,-0.76501 0,-0.29051 -0.16462,-0.50355 -0.15494,-0.22273 -0.51324,-0.44545 -0.34861,-0.22273 -1.87863,-0.91027 -1.38477,-0.62944 -2.082,-1.22015 -0.68754,-0.5907 -1.02647,-1.35572 -0.32925,-0.76501 -0.32925,-1.81085 0,-1.95611 1.42351,-3.05037 1.4235,-1.09426 3.91221,-1.09426 2.1982,0 4.48356,1.01679 l -1.17173,2.95353 q -1.98516,-0.91027 -3.42803,-0.91027 -0.74565,0 -1.08458,0.26146 -0.33893,0.26146 -0.33893,0.64881 0,0.4164 0.42609,0.74565 0.43576,0.32924 2.34345,1.20078 1.83022,0.82311 2.53713,1.77212 0.7166,0.93932 0.7166,2.3725 z"
             style="font-style:normal;font-variant:normal;font-weight:800;font-stretch:normal;font-size:19.83222771px;font-family:Open Sans;-inkscape-font-specification:Open Sans Ultra-Bold;text-align:center;letter-spacing:6.35737419px;text-anchor:middle;fill:#ffffff;stroke:none"
             id="path5725" />
        </g>
        <path
           style="color:#000000;text-decoration:none;text-decoration-line:none;text-decoration-color:currentColor;clip-rule:nonzero;display:inline;overflow:visible;visibility:visible;opacity:1;isolation:auto;color-interpolation:sRGB;color-interpolation-filters:linearRGB;fill:none;fill-opacity:1;fill-rule:nonzero;stroke:#ffffff;stroke-width:15.99999905;stroke-linecap:round;stroke-linejoin:miter;stroke-miterlimit:4;stroke-dasharray:none;stroke-dashoffset:0;stroke-opacity:1;marker:none;paint-order:normal;color-rendering:auto;image-rendering:auto;shape-rendering:auto;text-rendering:auto;enable-background:accumulate"
           d="m 433.34739,245.61577 18.96896,0 c 5.39412,0 9.73667,4.34255 9.73667,9.73667 l 0,39.15876 c 0,5.39411 -4.34255,9.73667 -9.73667,9.73667 l -18.96896,0 c -5.39412,0 -9.73667,-4.34256 -9.73667,-9.73667 l 0,-39.15876 c 0,-5.39412 4.34255,-9.73667 9.73667,-9.73667 z"
           id="rect4387" />
        <path
           style="color:#000000;font-style:normal;font-variant:normal;font-weight:normal;font-stretch:normal;font-size:medium;line-height:normal;font-family:sans-serif;text-indent:0;text-align:start;text-decoration:none;text-decoration-line:none;text-decoration-color:currentColor;letter-spacing:normal;word-spacing:normal;text-transform:none;direction:ltr;block-progression:tb;writing-mode:lr-tb;baseline-shift:baseline;text-anchor:start;clip-rule:nonzero;display:inline;overflow:visible;visibility:visible;opacity:1;isolation:auto;color-interpolation:sRGB;color-interpolation-filters:linearRGB;fill:#ffffff;fill-opacity:1;fill-rule:nonzero;stroke:none;stroke-width:15.99999905;stroke-linecap:round;stroke-linejoin:miter;stroke-miterlimit:4;stroke-dasharray:none;stroke-dashoffset:0;stroke-opacity:1;marker:none;paint-order:normal;color-rendering:auto;image-rendering:auto;shape-rendering:auto;text-rendering:auto;enable-background:accumulate"
           d="m 400.06207,237.4247 -18.82236,2.64583 0,13.38143 2.82222,0 0,58.91156 16.00014,0 z"
           id="path4389"
           inkscape:connector-curvature="0"
           sodipodi:nodetypes="ccccccc" />
      </g>
    </g>
  </g>
</svg>
